<svg width="600" height="500" viewBox="0 0 600 500" xmlns="http://www.w3.org/2000/svg">
  <defs>
    <linearGradient id="blueG" x1="0%" y1="0%" x2="100%" y2="100%">
      <stop offset="0%" stop-color="#2563EB" />
      <stop offset="100%" stop-color="#3B82F6" />
    </linearGradient>
  </defs>

  <!-- Background -->
  <circle cx="300" cy="250" r="200" fill="#EFF6FF" opacity="0.4" />

  <!-- Camera/Scan frame -->
  <rect x="140" y="80" width="320" height="240" rx="20" fill="white" stroke="#2563EB" stroke-width="3" />

  <!-- Camera UI corners -->
  <path d="M 170 110 L 170 130" stroke="#2563EB" stroke-width="3" stroke-linecap="round" />
  <path d="M 170 110 L 190 110" stroke="#2563EB" stroke-width="3" stroke-linecap="round" />
  <path d="M 430 110 L 430 130" stroke="#2563EB" stroke-width="3" stroke-linecap="round" />
  <path d="M 430 110 L 410 110" stroke="#2563EB" stroke-width="3" stroke-linecap="round" />
  <path d="M 170 290 L 170 270" stroke="#2563EB" stroke-width="3" stroke-linecap="round" />
  <path d="M 170 290 L 190 290" stroke="#2563EB" stroke-width="3" stroke-linecap="round" />
  <path d="M 430 290 L 430 270" stroke="#2563EB" stroke-width="3" stroke-linecap="round" />
  <path d="M 430 290 L 410 290" stroke="#2563EB" stroke-width="3" stroke-linecap="round" />

  <!-- Document being scanned -->
  <rect x="210" y="120" width="180" height="160" rx="4" fill="#FAFAFA" stroke="#E5E7EB" stroke-width="1.5" />
  <rect x="228" y="140" width="100" height="8" rx="4" fill="#1F2937" opacity="0.15" />
  <rect x="228" y="158" width="144" height="5" rx="2.5" fill="#93C5FD" opacity="0.4" />
  <rect x="228" y="170" width="130" height="5" rx="2.5" fill="#93C5FD" opacity="0.35" />
  <rect x="228" y="182" width="140" height="5" rx="2.5" fill="#93C5FD" opacity="0.3" />
  <rect x="228" y="194" width="110" height="5" rx="2.5" fill="#93C5FD" opacity="0.25" />
  <rect x="228" y="210" width="60" height="20" rx="4" fill="#2563EB" opacity="0.1" />
  <text x="238" y="224" font-size="10" fill="#2563EB" font-family="sans-serif" font-weight="600">1 250,00 EUR</text>
  <rect x="228" y="240" width="80" height="16" rx="8" fill="#FEF2F2" />
  <text x="236" y="252" font-size="8" fill="#EF4444" font-family="sans-serif" font-weight="600">Echéance: 15/03</text>

  <!-- Scan line -->
  <rect x="200" y="195" width="200" height="3" rx="1.5" fill="url(#blueG)" opacity="0.6" />

  <!-- AI analysis floating card -->
  <g transform="translate(380, 280)">
    <rect width="170" height="140" rx="16" fill="white" stroke="#E5E7EB" stroke-width="2" />
    <text x="16" y="30" font-size="11" fill="#1F2937" font-family="sans-serif" font-weight="700">Analyse IA</text>
    <rect x="16" y="42" width="138" height="1" fill="#E5E7EB" />
    <text x="16" y="62" font-size="9" fill="#6B7280" font-family="sans-serif">Type: Facture</text>
    <text x="16" y="80" font-size="9" fill="#6B7280" font-family="sans-serif">Montant: 1 250,00 EUR</text>
    <text x="16" y="98" font-size="9" fill="#6B7280" font-family="sans-serif">Echéance: 15 mars 2026</text>
    <rect x="16" y="110" width="60" height="18" rx="9" fill="#F0FDF4" />
    <text x="24" y="123" font-size="8" fill="#10B981" font-family="sans-serif" font-weight="600">Analyse OK</text>
  </g>

  <!-- Sparkles -->
  <circle cx="130" cy="160" r="4" fill="#F59E0B" opacity="0.6" />
  <circle cx="500" cy="120" r="5" fill="#10B981" opacity="0.5" />
  <circle cx="120" cy="350" r="3" fill="#2563EB" opacity="0.4" />
</svg>
